<?xml version="1.0" encoding="utf-8"?>
<svg xmlns="http://www.w3.org/2000/svg" viewBox="0 0 48 48">
<style type="text/css">
	.st0{fill:#FFFFFF;}
</style>
<path class="st0" d="M40,33.5c0,0.9-0.3,1.7-0.9,2.4c-0.6,0.6-1.4,1-2.3,1c-0.5,0-1-0.1-1.5-0.3c-4.8-2-9.1-5-12.8-8.8
	c-3.8-3.8-6.7-8-8.8-12.8C13.4,14.5,13.3,14,13.3,13.5c0-0.9,0.3-1.6,1-2.3c0.6-0.6,1.4-0.9,2.4-0.9h5.6c0.8,0,1.4,0.2,2,0.7
	c0.5,0.5,0.9,1.1,1,1.8c0.2,1.2,0.5,2.4,0.9,3.5c0.2,0.5,0.2,1,0.1,1.5c-0.1,0.5-0.4,1-0.7,1.3l-2.8,2.8c1.5,2.7,3.3,5.1,5.5,7.2
	c2.1,2.1,4.5,4,7.2,5.5l2.8-2.8c0.4-0.4,0.8-0.6,1.3-0.7c0.5-0.1,1,0,1.5,0.1c1.1,0.4,2.3,0.7,3.5,0.9c0.8,0.1,1.4,0.5,1.9,1
	C39.8,32.1,40,32.8,40,33.5z"/>
</svg>
